<?xml version="1.0" encoding="UTF-8" standalone="no"?>
<svg
   xmlns:dc="http://purl.org/dc/elements/1.1/"
   xmlns:cc="http://creativecommons.org/ns#"
   xmlns:rdf="http://www.w3.org/1999/02/22-rdf-syntax-ns#"
   xmlns:svg="http://www.w3.org/2000/svg"
   xmlns="http://www.w3.org/2000/svg"
   xmlns:sodipodi="http://sodipodi.sourceforge.net/DTD/sodipodi-0.dtd"
   xmlns:inkscape="http://www.inkscape.org/namespaces/inkscape"
   version="1.1"
   width="1344"
   height="768"
   id="svg198"
   sodipodi:docname="FEMBA_logo.svg"
   inkscape:version="0.92.3 (2405546, 2018-03-11)">
  <metadata
     id="metadata204">
    <rdf:RDF>
      <cc:Work
         rdf:about="">
        <dc:format>image/svg+xml</dc:format>
        <dc:type
           rdf:resource="http://purl.org/dc/dcmitype/StillImage" />
      </cc:Work>
    </rdf:RDF>
  </metadata>
  <defs
     id="defs202" />
  <sodipodi:namedview
     pagecolor="#ffffff"
     bordercolor="#666666"
     borderopacity="1"
     objecttolerance="10"
     gridtolerance="10"
     guidetolerance="10"
     inkscape:pageopacity="0"
     inkscape:pageshadow="2"
     inkscape:window-width="1920"
     inkscape:window-height="1103"
     id="namedview200"
     showgrid="false"
     inkscape:zoom="0.92857143"
     inkscape:cx="545.98964"
     inkscape:cy="519.71098"
     inkscape:window-x="0"
     inkscape:window-y="27"
     inkscape:window-maximized="1"
     inkscape:current-layer="svg198" />
  <path
     d="m -22.884615,12.519231 c 443.519995,0 887.039995,0 1344.000015,0 0,253.439999 0,506.879999 0,767.999999 -443.52002,0 -887.04002,0 -1344.000015,0 0,-253.44 0,-506.88 0,-767.999999 z"
     id="path2"
     inkscape:connector-curvature="0"
     style="fill:#fbfcfc" />
  <path
     d="M0 0 C11.57477514 10.06370789 18.99236542 22.8505672 20.30859375 38.3203125 C21.36451332 62.77444973 8.92119163 81.18689696 -6.890625 98.43359375 C-9.77143732 101.38350305 -12.80247059 104.01000947 -16.0078125 106.6015625 C-14.8321875 106.2096875 -13.6565625 105.8178125 -12.4453125 105.4140625 C-11.62417969 105.14207031 -10.80304688 104.87007813 -9.95703125 104.58984375 C-7.80967731 103.87026687 -5.6670363 103.13657951 -3.52734375 102.39453125 C-1.66142578 101.75451172 -1.66142578 101.75451172 0.2421875 101.1015625 C1.98242188 100.49828125 1.98242188 100.49828125 3.7578125 99.8828125 C14.19391133 96.60092205 23.98634879 95.09633843 34.9296875 95.2265625 C36.16025879 95.23598877 37.39083008 95.24541504 38.65869141 95.25512695 C47.16121219 95.39666646 54.85627601 95.98795363 62.9921875 98.6015625 C64.15234375 98.941875 65.3125 99.2821875 66.5078125 99.6328125 C85.76916885 105.80311713 100.39837455 119.12184617 109.9921875 136.6015625 C116.8680166 150.87514832 115.81519086 170.9538556 111.4453125 185.89453125 C107.05911727 197.08404543 99.97667161 206.69468311 91.9921875 215.6015625 C91.38117188 216.29507813 90.77015625 216.98859375 90.140625 217.703125 C68.76295021 240.53630105 32.5831901 254.52331885 1.76171875 255.5390625 C1.0445166 255.54808594 0.32731445 255.55710937 -0.41162109 255.56640625 C-2.40438703 255.59339123 -4.39691465 255.6384715 -6.38916016 255.69140625 C-22.64368181 256.10974422 -38.23434598 256.06685879 -54.0078125 251.6015625 C-54.67087402 251.41964355 -55.33393555 251.23772461 -56.01708984 251.05029297 C-80.99499528 244.0152373 -105.6582185 229.5786117 -119.0078125 206.6015625 C-120.8316145 202.99393224 -122.44579554 199.32858091 -124.0078125 195.6015625 C-124.471875 194.60962891 -124.471875 194.60962891 -124.9453125 193.59765625 C-131.27712348 179.99035092 -130.09438309 158.29257082 -125.19921875 144.42578125 C-124.80605469 143.49378906 -124.41289062 142.56179688 -124.0078125 141.6015625 C-123.46447266 140.28091797 -123.46447266 140.28091797 -122.91015625 138.93359375 C-117.97352288 128.13993773 -110.08033672 119.16333061 -102.0078125 110.6015625 C-101.41871094 109.94800781 -100.82960938 109.29445313 -100.22265625 108.62109375 C-90.11944106 97.85173251 -77.06779147 89.83898078 -64.79394531 81.78076172 C-56.99643754 76.63287182 -49.37442282 71.3019537 -42.15234375 65.36328125 C-40.87986406 64.3179473 -39.59087488 63.29143587 -38.26953125 62.30859375 C-32.89666178 58.24076234 -28.11411665 52.35290679 -27.1328125 45.5390625 C-27.0915625 44.5696875 -27.0503125 43.6003125 -27.0078125 42.6015625 C-36.57636146 43.06523668 -43.73605395 47.46280733 -51.7734375 52.19140625 C-60.0570196 57.01478149 -67.29493516 58.79607682 -76.8203125 58.9140625 C-77.58923828 58.94306641 -78.35816406 58.97207031 -79.15039062 59.00195312 C-84.85608989 59.06454729 -89.28312467 57.89457 -94.0078125 54.6015625 C-95.9453125 51.9140625 -95.9453125 51.9140625 -97.0078125 49.6015625 C-98.06091527 48.33152927 -98.06091527 48.33152927 -100.4453125 48.4140625 C-103.17515925 48.33316267 -103.17515925 48.33316267 -105.0078125 50.6015625 C-106.8828125 50.6640625 -106.8828125 50.6640625 -109.0078125 49.6015625 C-112.65819122 44.59349907 -114.15668861 39.92183522 -114.1953125 33.7265625 C-114.20949219 32.69789063 -114.22367187 31.66921875 -114.23828125 30.609375 C-113.78152751 24.64835157 -111.35022637 21.42151063 -107.18359375 17.41015625 C-103.98163429 14.74856337 -100.455131 12.71260479 -96.90234375 10.5546875 C-93.78596775 8.45186969 -91.17642746 6.1195219 -88.4453125 3.5390625 C-80.01119365 -4.32163184 -72.30358059 -8.2060712 -61.0078125 -10.3984375 C-60.10804688 -10.60339844 -59.20828125 -10.80835938 -58.28125 -11.01953125 C-37.93498294 -15.1747548 -16.51839361 -13.32428315 0 0 Z "
     fill="#3F2458"
     transform="translate(414.0078125,264.3984375)"
     id="path4" />
  <path
     d="M0 0 C10.374375 -0.0825 20.74875 -0.165 31.4375 -0.25 C34.69681396 -0.28641602 37.95612793 -0.32283203 41.31420898 -0.36035156 C43.91649722 -0.37204121 46.5187928 -0.38223238 49.12109375 -0.390625 C50.11835228 -0.40630524 50.11835228 -0.40630524 51.13575745 -0.42230225 C61.78974112 -0.58124652 69.80882183 0.5179364 77.875 7.875 C78.95394531 8.83019531 78.95394531 8.83019531 80.0546875 9.8046875 C85.188775 15.59857741 85.63837907 21.09302759 85.48828125 28.57421875 C84.62577213 34.62558276 81.50191753 37.94485345 76.921875 41.70703125 C75 43 75 43 73 43 C75.14052562 45.26722339 77.3674862 46.99390612 79.9375 48.75 C83.76158773 51.6656028 86.73007866 54.24171448 88 59 C89.04671526 67.58490144 89.18769876 75.61020602 83.9765625 82.9453125 C78.44306786 88.69752235 70.76198214 92.64510406 62.77285767 93.24050903 C61.0341188 93.2338472 61.0341188 93.2338472 59.26025391 93.22705078 C58.60532644 93.22729185 57.95039898 93.22753292 57.27562523 93.2277813 C55.17579477 93.22629994 53.07632864 93.2111222 50.9765625 93.1953125 C49.68516357 93.19329834 48.39376465 93.19128418 47.06323242 93.18920898 C42.25045202 93.17876421 37.43772235 93.15084165 32.625 93.125 C21.85875 93.08375 11.0925 93.0425 0 93 C0 62.31 0 31.62 0 0 Z "
     fill="#3F255B"
     transform="translate(869,336)"
     id="path6" />
  <path
     d="M0 0 C1.12148438 -0.02835937 2.24296875 -0.05671875 3.3984375 -0.0859375 C8.12872918 0.58981845 10.58544646 3.00893348 13.43920898 6.7590332 C13.99423096 7.63906006 14.54925293 8.51908691 15.12109375 9.42578125 C15.75595703 10.42424072 16.39082031 11.4227002 17.04492188 12.45141602 C17.71072266 13.51932373 18.37652344 14.58723145 19.0625 15.6875 C19.75537109 16.78441162 20.44824219 17.88132324 21.16210938 19.01147461 C28.12059511 30.04739823 34.90084825 41.19514259 41.625 52.375 C45.24413063 48.09008591 48.16814331 43.49870021 51.125 38.75 C52.18743942 37.05595159 53.24994132 35.36194236 54.3125 33.66796875 C54.85648438 32.79833496 55.40046875 31.92870117 55.9609375 31.03271484 C58.67199876 26.70281272 61.39831835 22.38257563 64.125 18.0625 C64.86266602 16.89050049 64.86266602 16.89050049 65.61523438 15.69482422 C66.53323104 14.23900813 67.45427171 12.78510532 68.37890625 11.33349609 C69.50197302 9.56836255 70.61122786 7.79445945 71.71875 6.01953125 C73.57381233 3.4460124 74.85042454 1.88514716 77.625 0.375 C82.81765575 -0.42776433 88.65549779 -0.75225015 93.25 2.125 C96.7523672 5.44303209 97.55145408 7.2295276 97.86550903 12.12091064 C97.87129429 13.65514702 97.86601871 15.18944912 97.85205078 16.72363281 C97.85234283 17.56302399 97.85263489 18.40241516 97.85293579 19.26724243 C97.85154409 22.03764231 97.83599039 24.80777219 97.8203125 27.578125 C97.8165818 29.50054782 97.8137351 31.42297255 97.81173706 33.34539795 C97.80410508 38.40231588 97.78446027 43.45911872 97.7623291 48.51599121 C97.74186134 53.67731164 97.73273335 58.83865068 97.72265625 64 C97.701214 74.12505867 97.66603535 84.25000175 97.625 94.375 C90.035 94.375 82.445 94.375 74.625 94.375 C74.625 76.885 74.625 59.395 74.625 41.375 C73.965 41.375 73.305 41.375 72.625 41.375 C72.39554688 42.03242188 72.16609375 42.68984375 71.9296875 43.3671875 C69.85798432 48.14326969 67.04017285 52.4399268 64.28125 56.84521484 C61.61706844 61.10534362 59.0441177 65.38075475 56.6171875 69.78125 C56.11687012 70.65378418 55.61655273 71.52631836 55.10107422 72.42529297 C54.13559174 74.10937802 53.20071529 75.81147777 52.30126953 77.53173828 C50.24800509 81.02441976 48.97243606 83.0208449 44.94799805 84.07861328 C40.41793083 84.31892116 37.63414082 84.24905898 34.14453125 81.2265625 C33.58121094 80.16179687 33.01789062 79.09703125 32.4375 78 C31.72858506 76.73844465 31.01743761 75.47814255 30.3046875 74.21875 C29.70285645 73.11080078 29.70285645 73.11080078 29.08886719 71.98046875 C26.69003975 67.71090797 24.07845264 63.57380948 21.49267578 59.41601562 C18.18249906 54.08195549 14.90742598 48.72618185 11.625 43.375 C11.295 60.205 10.965 77.035 10.625 94.375 C2.705 94.375 -5.215 94.375 -13.375 94.375 C-13.46541621 83.26563006 -13.53878249 72.15650502 -13.58224869 61.0468502 C-13.60311166 55.88802786 -13.63140597 50.72947058 -13.67675781 45.57080078 C-13.72026124 40.59114608 -13.74414681 35.61174614 -13.75450897 30.63191605 C-13.76189224 28.73331314 -13.77631014 26.83472398 -13.79792023 24.93622971 C-13.82701408 22.27407597 -13.83095352 19.61297107 -13.82910156 16.95068359 C-13.84348267 16.16809174 -13.85786377 15.38549988 -13.87268066 14.57919312 C-13.83380117 9.40437497 -12.79564042 6.47672257 -9.375 2.375 C-5.85460293 0.02806862 -4.17442991 0.04776236 0 0 Z "
     fill="#3F265C"
     transform="translate(753.375,334.625)"
     id="path8" />
  <path
     d="M0 0 C1.92131241 0.00022659 1.92131241 0.00022659 3.88143921 0.00045776 C5.2642228 0.01066869 6.64700478 0.02110064 8.02978516 0.03173828 C9.45610353 0.03547243 10.88242448 0.0383175 12.30874634 0.04031372 C16.04717192 0.0479186 19.78543999 0.0675397 23.52380371 0.08972168 C27.34478627 0.11024821 31.1657945 0.11932994 34.98681641 0.12939453 C42.47256499 0.15078887 49.95818418 0.18488638 57.44384766 0.22705078 C57.55238749 2.45513237 57.62968073 4.6847501 57.69384766 6.91455078 C57.74025391 8.15591797 57.78666016 9.39728516 57.83447266 10.67626953 C57.38117783 14.79671948 56.34133445 16.3349297 53.44384766 19.22705078 C51.11881147 20.38956887 49.72347868 20.3692896 47.13354492 20.40063477 C46.24244522 20.4141246 45.35134552 20.42761444 44.4332428 20.44151306 C43.46865646 20.45195145 42.50407013 20.46238983 41.51025391 20.47314453 C39.47965054 20.50607715 37.44905169 20.53928889 35.41845703 20.57275391 C32.2077947 20.62022635 28.99715143 20.66466304 25.78637695 20.70385742 C22.69414208 20.74349842 19.60228301 20.79505742 16.51025391 20.84814453 C15.06641075 20.86076576 15.06641075 20.86076576 13.59339905 20.87364197 C12.25202126 20.89860497 12.25202126 20.89860497 10.88354492 20.92407227 C9.70345604 20.93953346 9.70345604 20.93953346 8.49952698 20.95530701 C6.1356565 21.11410207 6.1356565 21.11410207 3.44384766 23.22705078 C3.11384766 27.84705078 2.78384766 32.46705078 2.44384766 37.22705078 C17.62384766 37.22705078 32.80384766 37.22705078 48.44384766 37.22705078 C48.44384766 43.49705078 48.44384766 49.76705078 48.44384766 56.22705078 C45.37458984 56.26443359 42.30533203 56.30181641 39.14306641 56.34033203 C36.17432478 56.38652771 33.20571022 56.4377685 30.23706055 56.48950195 C28.17203476 56.52278002 26.10691738 56.55080292 24.04174805 56.57348633 C21.07512333 56.60697933 18.10934017 56.65929223 15.14306641 56.71533203 C13.75543343 56.72491692 13.75543343 56.72491692 12.33976746 56.73469543 C11.47910172 56.75448959 10.61843597 56.77428375 9.73168945 56.79467773 C8.97446091 56.80578079 8.21723236 56.81688385 7.4370575 56.82832336 C4.9036748 57.33510851 4.0032349 58.19848245 2.44384766 60.22705078 C1.96833643 62.86222736 1.96833643 62.86222736 2.06884766 65.72705078 C2.06111328 66.68611328 2.05337891 67.64517578 2.04541016 68.63330078 C2.51545424 71.69319558 3.01576247 72.38045586 5.44384766 74.22705078 C7.84059239 74.69897459 7.84059239 74.69897459 10.55786133 74.65942383 C11.59871384 74.67921799 12.63956635 74.69901215 13.71195984 74.71940613 C14.83391251 74.72579605 15.95586517 74.73218597 17.11181641 74.73876953 C18.83674065 74.76569633 18.83674065 74.76569633 20.59651184 74.79316711 C24.27475298 74.84741339 27.95286329 74.88121249 31.63134766 74.91455078 C34.12290238 74.94771112 36.6144398 74.98219956 39.10595703 75.01806641 C45.21849306 75.10314845 51.33098931 75.16989175 57.44384766 75.22705078 C57.44384766 81.49705078 57.44384766 87.76705078 57.44384766 94.22705078 C49.23744468 94.29501921 41.03126316 94.34997729 32.82465363 94.3824873 C29.01336652 94.39809604 25.20228316 94.41924568 21.39111328 94.45336914 C17.70822669 94.48613499 14.02553522 94.50393978 10.34251404 94.51168251 C8.94238721 94.51719531 7.5422702 94.52796004 6.14222717 94.54424095 C-10.36455293 94.72843828 -10.36455293 94.72843828 -16.83349609 89.32470703 C-17.65527344 88.31730469 -17.65527344 88.31730469 -18.49365234 87.28955078 C-19.3425 86.28601563 -19.3425 86.28601563 -20.20849609 85.26220703 C-22.7792228 81.38003713 -22.68908997 77.58004325 -22.71728516 73.0090332 C-22.7268927 71.75060104 -22.73650024 70.49216888 -22.74639893 69.19560242 C-22.75124754 67.82457664 -22.75552621 66.45354875 -22.75927734 65.08251953 C-22.76503421 63.67011006 -22.77079187 62.2577006 -22.77655029 60.84529114 C-22.78704307 57.88554523 -22.79289687 54.92582633 -22.79638672 51.96606445 C-22.8018654 48.18668921 -22.82588693 44.40767531 -22.85435867 40.6284132 C-22.87304879 37.71062704 -22.87819404 34.79292678 -22.8797226 31.87508583 C-22.88273571 30.48251688 -22.89071863 29.08994895 -22.90390778 27.69743919 C-23.03858711 12.38404918 -23.03858711 12.38404918 -17.94287109 6.30126953 C-17.38212891 5.84365234 -16.82138672 5.38603516 -16.24365234 4.91455078 C-15.69064453 4.44404297 -15.13763672 3.97353516 -14.56787109 3.48876953 C-9.92956751 0.57969757 -5.38790229 -0.02129606 0 0 Z "
     fill="#40265C"
     transform="translate(668.55615234375,334.77294921875)"
     id="path10" />
  <path
     d="m 0,0 c 7.5385854,4.1612991 10.233532,12.817356 13.566406,20.285156 l 1.589844,3.498047 c 2.02016,4.457137 4.02534,8.919165 5.9375,13.423828 1.512523,3.524836 3.141188,6.988502 4.785156,10.453125 2.38627,5.06101 4.582497,10.143047 6.601563,15.363281 1.390683,3.363646 3.070987,6.563517 4.730468,9.800782 1.639184,3.361627 2.999721,6.805652 4.335938,10.296875 0.847231,2.234835 0.847231,2.234835 2.007812,4.265625 0.886719,1.960937 0.886719,1.960937 0.886719,5.960937 -3.395378,0.145754 -6.789949,0.234216 -10.1875,0.3125 l -2.908203,0.126953 -2.822266,0.04883 -2.586669,0.07935 c -2.495362,-0.567627 -2.495362,-0.567627 -7.495362,-5.567627 l -6,-13 -33,-1 c 0.793569,-4.761415 1.647608,-7.988456 3.5,-12.3125 l 1.34375,-3.175781 c 1.15625,-2.511719 1.15625,-2.511719 2.15625,-3.511719 1.342674,-0.08632 2.689743,-0.107064 4.0351565,-0.09766 l 2.4511719,0.0098 2.5761719,0.02539 2.5878906,0.01367 c 2.11656598,0.01183 3.4254039,0.02976 5.541917,0.04883 l -1.1923076,-3 v 0 c -6.334852,-17.856492 -6.334852,-17.856492 -9,-26 h -2.0000001 l -1.125,3.5625 c -3.4524452,10.324917 -7.7413102,20.268156 -12.3671872,30.113281 -1.648321,3.633992 -3.159815,7.304116 -4.632813,11.011719 l -0.765625,1.915528 c -1.104478,2.782268 -2.170036,5.569294 -3.164062,8.393066 l -0.945313,2.628906 -0.75,2.226563 c -1.866091,3.207345 -3.964608,5.46641 -7.25,7.148437 -3.486417,0.583712 -6.852895,0.475793 -10.375,0.3125 l -2.808593,-0.06836 c -2.27383,-0.0586 -4.544256,-0.140571 -6.816407,-0.244141 0.589124,-3.422113 1.455085,-6.35319 2.890625,-9.511719 l 1.143555,-2.531005 1.21582,-2.644776 1.239258,-2.72876 c 2.00264,-4.386641 4.047245,-8.736136 6.260742,-13.02124 1.814988,-3.525026 3.340158,-6.619386 4.720187,-10.336563 2.166332,-4.502274 3.940305,-9.433837 6.092313,-14.350937 2.176935,-5.273876 4.365059,-9.817776 6.472657,-15.207031 C -24.036134,7.8422313 -18.197698,-4.6397185 0,0 Z"
     transform="translate(1019.5586,335.65234)"
     id="path12"
     inkscape:connector-curvature="0"
     style="fill:#3e255a"
     sodipodi:nodetypes="ccccccccccccccccccccccccccccccccccccccccccccccccc" />
  <path
     d="M0 0 C0.71259476 -0.00043808 1.42518951 -0.00087616 2.15937805 -0.00132751 C4.50790077 0.00075766 6.85570401 0.02407497 9.20410156 0.04760742 C10.8350587 0.05320436 12.46602088 0.057474 14.09698486 0.06047058 C18.3846027 0.07191168 22.6719145 0.10137239 26.95941162 0.13458252 C31.33650574 0.16529933 35.71364942 0.17897935 40.09082031 0.1940918 C48.675596 0.22624294 57.26012318 0.27743022 65.84472656 0.34057617 C65.92544444 3.1328169 65.98508065 5.92274183 66.03222656 8.71557617 C66.05736328 9.50963867 66.0825 10.30370117 66.10839844 11.12182617 C66.13477062 13.19643765 65.99959118 15.27158482 65.84472656 17.34057617 C62.62664466 19.48596411 61.75991473 19.59328015 58.05371094 19.61181641 C57.08260376 19.62200302 56.11149658 19.63218964 55.11096191 19.64268494 C53.54058167 19.645895 53.54058167 19.645895 51.93847656 19.64916992 C49.72883843 19.67432268 47.51920307 19.69972081 45.30957031 19.7253418 C41.8201566 19.75413721 38.33079106 19.77815095 34.84130859 19.796875 C31.47761337 19.81846452 28.11447919 19.85789252 24.75097656 19.89916992 C23.18059631 19.89934364 23.18059631 19.89934364 21.57849121 19.89952087 C20.60738403 19.91285965 19.63627686 19.92619843 18.63574219 19.93994141 C17.35358826 19.94754738 17.35358826 19.94754738 16.04553223 19.95530701 C13.41152338 20.19919518 13.41152338 20.19919518 10.84472656 23.34057617 C10.51472656 28.29057617 10.18472656 33.24057617 9.84472656 38.34057617 C25.68472656 38.34057617 41.52472656 38.34057617 57.84472656 38.34057617 C57.84472656 44.94057617 57.84472656 51.54057617 57.84472656 58.34057617 C42.00472656 58.34057617 26.16472656 58.34057617 9.84472656 58.34057617 C9.84472656 69.89057617 9.84472656 81.44057617 9.84472656 93.34057617 C1.92472656 93.34057617 -5.99527344 93.34057617 -14.15527344 93.34057617 C-14.22305505 82.34431361 -14.27809298 71.34818984 -14.31070995 60.35176563 C-14.32636459 55.24566192 -14.34759932 50.13970858 -14.3815918 45.03369141 C-14.41419224 40.10592356 -14.43212797 35.17830033 -14.43990517 30.25043297 C-14.44544743 28.37055879 -14.4562701 26.4906925 -14.47246361 24.6108799 C-14.49424697 21.97739188 -14.49723999 19.34450114 -14.49584961 16.7109375 C-14.50663544 15.9341011 -14.51742126 15.15726471 -14.52853394 14.35688782 C-14.49609826 8.67767362 -13.33368483 5.5827248 -9.41497803 1.54936218 C-6.20326391 -0.16868323 -3.63164734 -0.01878438 0 0 Z "
     fill="#40265B"
     transform="translate(571.1552734375,335.659423828125)"
     id="path14" />
  <path
     d="M0 0 C2.48730469 0.0703125 2.48730469 0.0703125 5 1 C6.28613281 3.1171875 6.28613281 3.1171875 7.203125 5.875 C7.5434375 6.85984375 7.88375 7.8446875 8.234375 8.859375 C8.56953125 9.89578125 8.9046875 10.9321875 9.25 12 C9.94091827 14.04227313 10.63353461 16.08397286 11.328125 18.125 C11.6262207 19.03507812 11.92431641 19.94515625 12.23144531 20.8828125 C12.81498247 22.9561121 12.81498247 22.9561121 14 24 C14.30292969 23.14535156 14.60585938 22.29070312 14.91796875 21.41015625 C15.33691406 20.30542969 15.75585938 19.20070313 16.1875 18.0625 C16.59355469 16.96035156 16.99960937 15.85820312 17.41796875 14.72265625 C19 12 19 12 21.67578125 11.12109375 C22.82626953 11.06115234 22.82626953 11.06115234 24 11 C26.18326108 15.27113698 28.31326082 19.50202887 30 24 C30.47179687 23.18402344 30.94359375 22.36804688 31.4296875 21.52734375 C34.20461218 18.79880839 34.60935887 18.62406411 38.2578125 18.44140625 C39.88064506 18.45596674 41.50341736 18.49717558 43.125 18.5625 C43.94871094 18.56830078 44.77242187 18.57410156 45.62109375 18.58007812 C51.70453477 18.70453477 51.70453477 18.70453477 54 21 C53.625 23.625 53.625 23.625 53 26 C51.98679687 25.94457031 50.97359375 25.88914062 49.9296875 25.83203125 C45.72494275 25.75716156 42.10089243 25.95442241 38 27 C34.93945081 30.30149695 33.40649013 33.75253977 32 38 C29.67578125 37.78515625 29.67578125 37.78515625 27 37 C25.41796875 34.93359375 25.41796875 34.93359375 24.1875 32.4375 C23.76855469 31.61121094 23.34960938 30.78492188 22.91796875 29.93359375 C22.61503906 29.29550781 22.31210937 28.65742188 22 28 C20.11841613 30.39616068 18.84576686 32.35754046 17.625 35.1875 C16 38 16 38 13.3125 38.875 C12.549375 38.91625 11.78625 38.9575 11 39 C7.72918079 35.35509883 6.65675799 31.3472811 5.3125 26.75 C4.97508789 25.63238281 4.97508789 25.63238281 4.63085938 24.4921875 C4.07995041 22.6636386 3.53897854 20.83210095 3 19 C1.53451741 21.74274516 0.54269072 24.32376761 -0.21875 27.3359375 C-0.53392578 28.56183594 -0.53392578 28.56183594 -0.85546875 29.8125 C-1.06816406 30.658125 -1.28085937 31.50375 -1.5 32.375 C-5.28479381 47.28479381 -5.28479381 47.28479381 -7 49 C-8.66617115 49.04063832 -10.33388095 49.042721 -12 49 C-13.17094005 46.2100561 -14.33690927 43.41821403 -15.5 40.625 C-15.83386719 39.8309375 -16.16773438 39.036875 -16.51171875 38.21875 C-16.82753906 37.45820313 -17.14335937 36.69765625 -17.46875 35.9140625 C-17.76201172 35.2123291 -18.05527344 34.5105957 -18.35742188 33.78759766 C-19 32 -19 32 -19 30 C-19.66 30 -20.32 30 -21 30 C-21.4640625 31.2065625 -21.4640625 31.2065625 -21.9375 32.4375 C-23 35 -23 35 -24 36 C-26.8125 36.4375 -26.8125 36.4375 -30 36 C-34 31.15789474 -34 31.15789474 -34 28 C-34.66 28 -35.32 28 -36 28 C-36.10957031 28.556875 -36.21914063 29.11375 -36.33203125 29.6875 C-37.44275248 35.03341031 -38.97225526 39.93063816 -41 45 C-42.98 45 -44.96 45 -47 45 C-49.55159453 39.40611968 -51.94805212 33.76272405 -54.25 28.0625 C-54.52021973 27.39984131 -54.79043945 26.73718262 -55.06884766 26.05444336 C-57 21.23649769 -57 21.23649769 -57 19 C-57.66 19 -58.32 19 -59 19 C-59.10957031 19.65226562 -59.21914063 20.30453125 -59.33203125 20.9765625 C-60.26508962 26.1197623 -61.34784083 30.41899779 -64 35 C-67.60296594 35.41176754 -68.78402067 35.1535853 -71.8125 33 C-72.534375 32.34 -73.25625 31.68 -74 31 C-74.433125 32.1446875 -74.433125 32.1446875 -74.875 33.3125 C-76 36 -76 36 -78 39 C-79.98 39 -81.96 39 -84 39 C-85.98 35.04 -87.96 31.08 -90 27 C-91.99804688 26.95101563 -93.99609375 26.90203125 -96.0546875 26.8515625 C-97.98748757 26.79594235 -99.92028637 26.74025454 -101.85302734 26.68261719 C-103.85886971 26.62545964 -105.86498918 26.57831404 -107.87109375 26.53125 C-109.12792969 26.49257813 -110.38476562 26.45390625 -111.6796875 26.4140625 C-112.84226074 26.3826416 -114.00483398 26.3512207 -115.20263672 26.31884766 C-118 26 -118 26 -120 24 C-119.46428571 20.46428571 -119.46428571 20.46428571 -118 19 C-113.63753277 18.73334552 -109.26929892 18.72872246 -104.8996582 18.70483398 C-102.70655399 18.6876493 -100.51496859 18.64378426 -98.32226562 18.59960938 C-96.92709443 18.58948005 -95.5319104 18.5809647 -94.13671875 18.57421875 C-92.86530029 18.55963623 -91.59388184 18.54505371 -90.28393555 18.5300293 C-86.43719058 19.0805448 -85.3378428 19.97182038 -83 23 C-81.75 25.25 -81.75 25.25 -81 27 C-80.38125 26.21625 -79.7625 25.4325 -79.125 24.625 C-77 22 -77 22 -75 20 C-71.55834679 20.35299007 -69.93127462 21.04581692 -67 23 C-66.9175 22.0925 -66.835 21.185 -66.75 20.25 C-66.04016269 15.176751 -64.68094229 6.68094229 -61 3 C-59.33382885 2.95936168 -57.66611905 2.957279 -56 3 C-53.22660497 8.86679718 -50.91547882 14.82596614 -48.75 20.9375 C-48.47978027 21.69538818 -48.20956055 22.45327637 -47.93115234 23.23413086 C-46 28.74878165 -46 28.74878165 -46 31 C-45.34 31 -44.68 31 -44 31 C-43.89042969 30.26394531 -43.78085937 29.52789062 -43.66796875 28.76953125 C-41.96614723 18.29571915 -41.96614723 18.29571915 -39 15 C-36.3125 14.1875 -36.3125 14.1875 -34 14 C-31.51110752 17.56741255 -29.45044271 20.89041233 -28 25 C-27.70867187 24.4946875 -27.41734375 23.989375 -27.1171875 23.46875 C-23.78563412 18.18855219 -23.78563412 18.18855219 -19.875 17.25 C-17 18 -17 18 -15.3125 20 C-13.72592869 23.62644871 -12.32753193 27.27026742 -11 31 C-9.53451741 28.25725484 -8.54269072 25.67623239 -7.78125 22.6640625 C-7.46607422 21.43816406 -7.46607422 21.43816406 -7.14453125 20.1875 C-6.93183594 19.341875 -6.71914063 18.49625 -6.5 17.625 C-2.71520619 2.71520619 -2.71520619 2.71520619 0 0 Z "
     fill="#31CDC1"
     transform="translate(443,387)"
     id="path16" />
  <path
     d="M0 0 C4.89393178 -0.09200081 9.78484642 -0.1715799 14.67895508 -0.21972656 C16.34247013 -0.23980207 18.00591496 -0.26706876 19.66918945 -0.30175781 C22.0647924 -0.35045766 24.45945992 -0.37300856 26.85546875 -0.390625 C27.96513252 -0.42159271 27.96513252 -0.42159271 29.09721375 -0.45318604 C32.77596247 -0.45477301 34.82701375 -0.10912863 37.9675293 1.87207031 C40.39441196 4.41293629 40.67788822 5.53053248 40.625 9 C40.4416936 12.77166809 40.29995303 13.66761962 37.6875 16.5625 C33.25228573 18.93482391 29.61606434 19.13467271 24.70703125 19.09765625 C23.64798836 19.09553383 23.64798836 19.09553383 22.56755066 19.09336853 C20.31582374 19.08777764 18.06419679 19.07522688 15.8125 19.0625 C14.28450665 19.05748382 12.75651173 19.05292112 11.22851562 19.04882812 C7.48560772 19.0386627 3.74291557 19.01908569 0 19 C0 12.73 0 6.46 0 0 Z "
     fill="#F4F3F6"
     transform="translate(893,391)"
     id="path18" />
  <path
     d="M0 0 C4.16435333 -0.11524963 8.32311098 -0.21461377 12.48779297 -0.2746582 C13.90204682 -0.29969925 15.31617257 -0.33374342 16.72998047 -0.37719727 C29.99829519 -0.77459217 29.99829519 -0.77459217 33.91796875 2.30078125 C36 5 36 5 36.6875 8.5 C35.8403214 12.81290923 34.3720891 14.27021358 31 17 C28.12981559 18.43509221 25.66456277 18.11158506 22.4609375 18.09765625 C21.15898438 18.09443359 19.85703125 18.09121094 18.515625 18.08789062 C17.13541601 18.07953466 15.75520768 18.07106971 14.375 18.0625 C12.98698074 18.05748501 11.59895978 18.0529221 10.2109375 18.04882812 C6.80727327 18.03700985 3.4036313 18.0190739 0 18 C0 12.06 0 6.12 0 0 Z "
     fill="#F9F8F9"
     transform="translate(894,355)"
     id="path20" />
  <path
     d="M0 0 C3.07940017 0.83227032 4.37944418 2.11918691 6.3125 4.625 C6.3125 5.615 6.3125 6.605 6.3125 7.625 C5.425625 8.016875 4.53875 8.40875 3.625 8.8125 C0.19150897 10.69120264 -1.97750698 12.8397294 -4.6875 15.625 C-5.3475 15.625 -6.0075 15.625 -6.6875 15.625 C-7.120625 16.9553125 -7.120625 16.9553125 -7.5625 18.3125 C-8.6875 21.625 -8.6875 21.625 -9.72705078 24.01391602 C-10.71681105 26.70468522 -11.02045282 28.86229118 -11.1796875 31.71484375 C-11.24542969 32.66423828 -11.31117188 33.61363281 -11.37890625 34.59179688 C-11.50103275 36.56790764 -11.615651 38.54449714 -11.72265625 40.52148438 C-12.24015723 47.72255933 -13.52332707 51.46082707 -18.6875 56.625 C-20.0075 56.625 -21.3275 56.625 -22.6875 56.625 C-22.48253906 56.05652344 -22.27757812 55.48804688 -22.06640625 54.90234375 C-20.39657331 50.1165546 -19.22373064 45.66556799 -18.6875 40.625 C-20.00037621 41.77040225 -21.31279021 42.91633433 -22.625 44.0625 C-23.35589844 44.70058594 -24.08679688 45.33867187 -24.83984375 45.99609375 C-25.80889353 46.85041459 -26.77401175 47.71151175 -27.6875 48.625 C-29.20678038 48.69679964 -30.72917482 48.70892007 -32.25 48.6875 C-33.07628906 48.67847656 -33.90257812 48.66945313 -34.75390625 48.66015625 C-35.39199219 48.64855469 -36.03007812 48.63695312 -36.6875 48.625 C-36.41796875 46.7265625 -36.41796875 46.7265625 -35.6875 44.625 C-34.05078125 43.7109375 -34.05078125 43.7109375 -32 43 C-26.39471978 40.39289292 -24.08907381 36.17045226 -21.6875 30.625 C-21.02318482 28.30255414 -20.39956743 25.9681648 -19.8125 23.625 C-17.93744972 16.4671317 -14.82200981 11.87489205 -9.6875 6.625 C-8.74777344 5.66207031 -8.74777344 5.66207031 -7.7890625 4.6796875 C-5.22449584 2.27190658 -3.45653173 0.80384459 0 0 Z "
     fill="#33DBCE"
     transform="translate(313.6875,311.375)"
     id="path22" />
  <path
     d="M0 0 C0 4 0 4 -1.875 6.5 C-5.61298407 9.94148675 -10.25852495 11.40480607 -15 13 C-16.794375 13.61875 -16.794375 13.61875 -18.625 14.25 C-29.35514918 16.66102542 -40.65704426 15.29094046 -51 12 C-51 11.34 -51 10.68 -51 10 C-50.09121094 9.91363281 -49.18242187 9.82726562 -48.24609375 9.73828125 C-38.54623781 8.6538871 -30.19130494 6.25845593 -21 3 C-13.83182578 0.65673584 -7.55329155 -0.44238367 0 0 Z "
     fill="#F0EEF2"
     transform="translate(460,438)"
     id="path28" />
  <path
     d="M0 0 C1 1 1 1 1.3125 4.75 C1.27714878 8.03766339 1.0232422 8.96313306 -0.8125 11.875 C-4.57458124 15.52959321 -6.78796407 16.29340407 -11.9375 16.3125 C-13.49791016 16.33763672 -13.49791016 16.33763672 -15.08984375 16.36328125 C-18.29857048 15.96272879 -19.64358994 15.15199859 -22 13 C-21.67243311 10.02569266 -21.14463222 9.12285963 -18.8203125 7.1484375 C-17.93085938 6.56320312 -17.04140625 5.97796875 -16.125 5.375 C-15.24070312 4.78460938 -14.35640625 4.19421875 -13.4453125 3.5859375 C-12.63835937 3.06257813 -11.83140625 2.53921875 -11 2 C-6.95807022 -0.69461986 -4.7948504 -0.23200889 0 0 Z "
     fill="#F2F0F4"
     transform="translate(367,276)"
     id="path34" />
</svg>
